<svg width="13" height="16" viewBox="0 0 13 16" fill="none" xmlns="http://www.w3.org/2000/svg">
    <path
        d="M4.46283 4.92371C4.93441 4.92371 5.31336 4.54476 5.31336 4.07318C5.31336 3.6016 4.93441 3.22266 4.46283 3.22266C3.99125 3.22266 3.6123 3.6016 3.6123 4.07318C3.6123 4.54476 3.99125 4.92371 4.46283 4.92371Z"
        fill="#352F44" />
    <path fill-rule="evenodd" clip-rule="evenodd"
        d="M6.17212 6.78116C6.17212 5.87169 5.4058 5.21484 4.46264 5.21484C3.51949 5.21484 2.75317 5.87169 2.75317 6.78116V7.21063C2.75317 7.28642 2.78685 7.36221 2.83738 7.41274C2.88791 7.46326 2.9637 7.49695 3.03949 7.49695H5.8858C5.96159 7.49695 6.03738 7.46326 6.08791 7.41274C6.13843 7.36221 6.17212 7.28642 6.17212 7.21063V6.78116ZM2.73633 9.26537C2.73633 9.09786 2.80287 8.93722 2.92131 8.81878C3.03976 8.70033 3.2004 8.63379 3.36791 8.63379H9.26264C9.43015 8.63379 9.59079 8.70033 9.70924 8.81878C9.82768 8.93722 9.89422 9.09786 9.89422 9.26537C9.89422 9.43288 9.82768 9.59352 9.70924 9.71196C9.59079 9.83041 9.43015 9.89695 9.26264 9.89695H3.36791C3.2004 9.89695 3.03976 9.83041 2.92131 9.71196C2.80287 9.59352 2.73633 9.43288 2.73633 9.26537ZM2.73633 11.7917C2.73633 11.6242 2.80287 11.4635 2.92131 11.3451C3.03976 11.2266 3.2004 11.1601 3.36791 11.1601H9.26264C9.43015 11.1601 9.59079 11.2266 9.70924 11.3451C9.82768 11.4635 9.89422 11.6242 9.89422 11.7917C9.89422 11.9592 9.82768 12.1198 9.70924 12.2383C9.59079 12.3567 9.43015 12.4233 9.26264 12.4233H3.36791C3.2004 12.4233 3.03976 12.3567 2.92131 12.2383C2.80287 12.1198 2.73633 11.9592 2.73633 11.7917Z"
        fill="#352F44" />
    <path fill-rule="evenodd" clip-rule="evenodd"
        d="M0 1.68421C0 0.756211 0.756211 0 1.68421 0H7.31789C7.79116 0 8.23747 0.200421 8.55158 0.531368L8.55663 0.537263L12.1878 4.49684C12.4901 4.81937 12.6316 5.24126 12.6316 5.64211V14.3158C12.6316 15.2438 11.8754 16 10.9474 16H1.68421C0.756211 16 0 15.2438 0 14.3158V1.68421ZM7.31705 1.68421H1.68421V14.3158H10.9474V5.63537L7.32968 1.69011L7.32716 1.68926C7.32409 1.68704 7.32068 1.68533 7.31705 1.68421Z"
        fill="#352F44" />
    <path fill-rule="evenodd" clip-rule="evenodd"
        d="M7.31867 0C7.54201 0 7.7562 0.0887216 7.91413 0.246647C8.07205 0.404572 8.16077 0.618765 8.16077 0.842105V4.8H11.7902C11.9008 4.8 12.0103 4.82178 12.1125 4.8641C12.2147 4.90642 12.3075 4.96845 12.3857 5.04665C12.4639 5.12484 12.5259 5.21768 12.5683 5.31985C12.6106 5.42201 12.6324 5.53152 12.6324 5.64211C12.6324 5.75269 12.6106 5.8622 12.5683 5.96437C12.5259 6.06653 12.4639 6.15937 12.3857 6.23756C12.3075 6.31576 12.2147 6.37779 12.1125 6.42011C12.0103 6.46243 11.9008 6.48421 11.7902 6.48421H7.31867C7.09533 6.48421 6.88113 6.39549 6.72321 6.23756C6.56528 6.07964 6.47656 5.86545 6.47656 5.64211V0.842105C6.47656 0.618765 6.56528 0.404572 6.72321 0.246647C6.88113 0.0887216 7.09533 0 7.31867 0Z"
        fill="#352F44" />
</svg>
    