<svg width="28" height="31" viewBox="0 0 28 31" fill="none" xmlns="http://www.w3.org/2000/svg">
    <circle cx="14" cy="17" r="14" fill="#F0A159" />
    <circle cx="14" cy="14" r="14" fill="#F0D859" />
    <path
        d="M16.5054 6.90338C15.0699 6.56981 13.577 6.56981 12.1414 6.90338C11.3123 6.39487 10.6793 6.16117 10.219 6.06252C10.0225 6.01818 9.82144 5.99729 9.62004 6.00028C9.52839 6.00277 9.43718 6.01377 9.34758 6.03316L9.33584 6.03551L9.33114 6.03786H9.32762L9.48851 6.60274L9.32762 6.03904C9.24511 6.06235 9.16871 6.10345 9.10379 6.15945C9.03887 6.21544 8.98699 6.28498 8.95182 6.36316C8.60534 7.13908 8.53933 8.01131 8.76509 8.83053C8.18041 9.5391 7.86179 10.4297 7.86434 11.3484C7.86434 13.1722 8.40221 14.3983 9.3194 15.1863C9.96178 15.7382 10.7416 16.0318 11.5237 16.1997C11.4006 16.5612 11.3542 16.9444 11.3875 17.3248V18.0271C10.9095 18.1269 10.5783 18.0952 10.3423 18.0177C10.0475 17.9202 9.82085 17.7241 9.60359 17.4422C9.49002 17.2903 9.38419 17.1327 9.28651 16.9701L9.21957 16.8609C9.13505 16.7204 9.04734 16.5818 8.95651 16.4452C8.73338 16.1152 8.40221 15.7018 7.86669 15.5609L7.29829 15.4117L7 16.5485L7.5684 16.6977C7.66235 16.7212 7.78448 16.8093 7.9853 17.104C8.0626 17.2204 8.137 17.3386 8.20843 17.4587L8.28829 17.5879C8.39868 17.7664 8.52552 17.9637 8.67231 18.1563C8.96943 18.5438 9.37459 18.9349 9.97587 19.1333C10.3869 19.2696 10.8543 19.3025 11.3875 19.2202V21.4128C11.3875 21.5685 11.4493 21.7179 11.5595 21.828C11.6696 21.9381 11.8189 22 11.9747 22H16.6722C16.8279 22 16.9773 21.9381 17.0874 21.828C17.1975 21.7179 17.2594 21.5685 17.2594 21.4128V17.2285C17.2594 16.8586 17.2429 16.5192 17.1384 16.2033C17.917 16.0389 18.6909 15.7453 19.3298 15.1933C20.2458 14.3994 20.7825 13.1616 20.7825 11.3273V11.3261C20.7795 10.415 20.4608 9.53303 19.8806 8.83053C20.106 8.01167 20.04 7.13991 19.6938 6.36434C19.6589 6.28606 19.6073 6.21637 19.5426 6.16018C19.4779 6.10398 19.4016 6.06263 19.3192 6.03904L19.1583 6.60274C19.3192 6.03904 19.318 6.03904 19.3169 6.03904L19.3145 6.03786L19.3098 6.03551L19.2993 6.03316C19.2703 6.02562 19.2408 6.01974 19.2112 6.01555C19.1497 6.00657 19.0877 6.00147 19.0256 6.00028C18.8242 5.99731 18.6232 6.0182 18.4267 6.06252C17.9675 6.16117 17.3345 6.39487 16.5054 6.90338Z"
        fill="#352F44" />
</svg>
    