<svg width="53" height="45" viewBox="0 0 53 45" fill="none" xmlns="http://www.w3.org/2000/svg">
    <path d="M53 10.5C52.9987 9.39738 52.6978 8.31589 52.1295 7.37158C51.5612 6.42726 50.747 5.65575 49.7743 5.13982C49.7516 4.06953 49.403 3.03175 48.7751 2.16554C48.1471 1.29933 47.2699 0.646066 46.261 0.293298C45.2521 -0.0594698 44.1596 -0.0948921 43.13 0.191778C42.1004 0.478448 41.1829 1.07351 40.5004 1.89724C39.8179 1.07351 38.9003 0.478448 37.8707 0.191778C36.8411 -0.0948921 35.7487 -0.0594698 34.7398 0.293298C33.7308 0.646066 32.8536 1.29933 32.2257 2.16554C31.5978 3.03175 31.2491 4.06953 31.2265 5.13982C30.2527 5.65435 29.4376 6.42538 28.8691 7.36978C28.3005 8.31419 28 9.39614 28 10.499C28 11.6019 28.3005 12.6838 28.8691 13.6282C29.4376 14.5726 30.2527 15.3437 31.2265 15.8582C31.2487 16.9287 31.5971 17.9667 32.2249 18.8333C32.8526 19.6998 33.7298 20.3533 34.7388 20.7064C35.7479 21.0594 36.8405 21.095 37.8703 20.8084C38.9 20.5218 39.8177 19.9267 40.5004 19.1028C41.183 19.9267 42.1007 20.5218 43.1305 20.8084C44.1603 21.095 45.2529 21.0594 46.2619 20.7064C47.2709 20.3533 48.1481 19.6998 48.7759 18.8333C49.4037 17.9667 49.752 16.9287 49.7743 15.8582C50.7474 15.3432 51.5619 14.5722 52.1303 13.6281C52.6987 12.684 52.9993 11.6025 53 10.5ZM36.4682 18.5787C35.8592 18.5786 35.2666 18.3812 34.7788 18.0159C34.2909 17.6507 33.9342 17.1371 33.7617 16.552C33.8625 16.552 33.9522 16.559 34.049 16.559H34.8554C35.1762 16.559 35.4839 16.4314 35.7107 16.2041C35.9376 15.9769 36.065 15.6686 36.065 15.3472C36.065 15.0258 35.9376 14.7176 35.7107 14.4904C35.4839 14.2631 35.1762 14.1354 34.8554 14.1354H34.049C33.1925 14.136 32.3634 13.8331 31.7083 13.2803C31.0533 12.7275 30.6146 11.9604 30.4698 11.1147C30.3249 10.269 30.4834 9.3993 30.917 8.65938C31.3507 7.91946 32.0316 7.35704 32.8393 7.07163C33.0753 6.98807 33.2795 6.83325 33.424 6.62851C33.5684 6.42377 33.6459 6.1792 33.6458 5.9285V5.24888C33.6458 4.49897 33.9431 3.77977 34.4724 3.24951C35.0018 2.71924 35.7197 2.42134 36.4682 2.42134C37.2168 2.42134 37.9347 2.71924 38.4641 3.24951C38.9934 3.77977 39.2907 4.49897 39.2907 5.24888V11.323C38.9013 11.075 38.481 10.8791 38.0408 10.7404C37.7347 10.6439 37.4029 10.6733 37.1184 10.822C36.8338 10.9706 36.6199 11.2264 36.5237 11.5331C36.4274 11.8397 36.4567 12.1721 36.6051 12.4572C36.7535 12.7422 37.0089 12.9565 37.315 13.0529C37.959 13.255 38.5095 13.6815 38.8665 14.2553C39.2236 14.829 39.3636 15.5119 39.2612 16.1802C39.1588 16.8485 38.8207 17.4579 38.3084 17.8979C37.796 18.3379 37.1431 18.5795 36.4682 18.5787ZM46.9518 14.1354H46.1454C45.8246 14.1354 45.5169 14.2631 45.29 14.4904C45.0632 14.7176 44.9357 15.0258 44.9357 15.3472C44.9357 15.6686 45.0632 15.9769 45.29 16.2041C45.5169 16.4314 45.8246 16.559 46.1454 16.559H46.9518C47.0526 16.559 47.1433 16.559 47.2391 16.552C47.1009 17.0204 46.8439 17.4449 46.4932 17.7843C46.1425 18.1236 45.71 18.3661 45.2379 18.4882C44.7658 18.6103 44.2702 18.6078 43.7993 18.4809C43.3285 18.3541 42.8985 18.1072 42.5512 17.7643C42.2039 17.4215 41.9512 16.9944 41.8177 16.5246C41.6842 16.0548 41.6745 15.5584 41.7895 15.0837C41.9044 14.609 42.1402 14.1723 42.4738 13.816C42.8073 13.4598 43.2273 13.1962 43.6928 13.0509C43.9992 12.9554 44.2552 12.7419 44.4044 12.4573C44.5537 12.1728 44.584 11.8405 44.4887 11.5336C44.3934 11.2267 44.1802 10.9702 43.8962 10.8207C43.6122 10.6712 43.2805 10.6408 42.9741 10.7363C42.5286 10.8747 42.1034 11.072 41.71 11.323V5.24888C41.71 4.49897 42.0074 3.77977 42.5367 3.24951C43.066 2.71924 43.7839 2.42134 44.5325 2.42134C45.2811 2.42134 45.999 2.71924 46.5283 3.24951C47.0576 3.77977 47.355 4.49897 47.355 5.24888V5.9285C47.3549 6.1792 47.4324 6.42377 47.5768 6.62851C47.7212 6.83325 47.9255 6.98807 48.1614 7.07163C48.9728 7.35446 49.6577 7.91646 50.0942 8.65765C50.5308 9.39884 50.6907 10.2711 50.5456 11.1194C50.4004 11.9676 49.9596 12.7367 49.3015 13.2899C48.6435 13.8431 47.8109 14.1445 46.9518 14.1405V14.1354ZM48.5647 9.69216C48.5647 10.0135 48.4372 10.3218 48.2104 10.549C47.9835 10.7763 47.6758 10.904 47.355 10.904C46.2856 10.904 45.26 10.4784 44.5039 9.72086C43.7477 8.96334 43.3229 7.93592 43.3229 6.86462V6.46068C43.3229 6.13929 43.4503 5.83107 43.6772 5.60381C43.904 5.37655 44.2117 5.24888 44.5325 5.24888C44.8533 5.24888 45.161 5.37655 45.3879 5.60381C45.6147 5.83107 45.7422 6.13929 45.7422 6.46068V6.86462C45.7422 7.29314 45.9121 7.70411 46.2146 8.00712C46.517 8.31013 46.9273 8.48035 47.355 8.48035C47.6758 8.48035 47.9835 8.60803 48.2104 8.83528C48.4372 9.06254 48.5647 9.37077 48.5647 9.69216ZM33.6458 10.904C33.3249 10.904 33.0173 10.7763 32.7904 10.549C32.5636 10.3218 32.4361 10.0135 32.4361 9.69216C32.4361 9.37077 32.5636 9.06254 32.7904 8.83528C33.0173 8.60803 33.3249 8.48035 33.6458 8.48035C34.0735 8.48035 34.4837 8.31013 34.7862 8.00712C35.0887 7.70411 35.2586 7.29314 35.2586 6.86462V6.46068C35.2586 6.13929 35.3861 5.83107 35.6129 5.60381C35.8398 5.37655 36.1474 5.24888 36.4682 5.24888C36.7891 5.24888 37.0967 5.37655 37.3236 5.60381C37.5504 5.83107 37.6779 6.13929 37.6779 6.46068V6.86462C37.6779 7.93592 37.2531 8.96334 36.4969 9.72086C35.7407 10.4784 34.7151 10.904 33.6458 10.904Z" fill="#9A966E"/>
    <path d="M18 32L24 34C24 34 39 31 41 31C43 31 43 33 41 35C39 37 32 43 26 43C20 43 16 40 12 40H2" stroke="#9A966E" stroke-width="4" stroke-linecap="round" stroke-linejoin="round"/>
    <path d="M2 28C4 26 8 23 12 23C16 23 25.5 27 27 29C28.5 31 24 34 24 34" stroke="#9A966E" stroke-width="4" stroke-linecap="round" stroke-linejoin="round"/>
    </svg>
    