<svg width="63" height="51" viewBox="0 0 63 51" fill="none" xmlns="http://www.w3.org/2000/svg">
    <mask id="mask0_1463_3" style="mask-type:luminance" maskUnits="userSpaceOnUse" x="0" y="0" width="63" height="51">
    <path d="M55.9583 2H6.375C3.95875 2 2 3.95875 2 6.375V44.2917C2 46.7079 3.95875 48.6667 6.375 48.6667H55.9583C58.3746 48.6667 60.3333 46.7079 60.3333 44.2917V6.375C60.3333 3.95875 58.3746 2 55.9583 2Z" stroke="white" stroke-width="4" stroke-linejoin="round"/>
    <path d="M2 6.375C2 5.21468 2.46094 4.10188 3.28141 3.28141C4.10188 2.46094 5.21468 2 6.375 2H55.9583C57.1187 2 58.2314 2.46094 59.0519 3.28141C59.8724 4.10188 60.3333 5.21468 60.3333 6.375V19.5H2V6.375Z" fill="white" stroke="white" stroke-width="4"/>
    <path d="M7.83317 10.7513C7.83317 9.14047 9.13901 7.83464 10.7498 7.83464C12.3607 7.83464 13.6665 9.14047 13.6665 10.7513C13.6665 12.3621 12.3607 13.668 10.7498 13.668C9.13901 13.668 7.83317 12.3621 7.83317 10.7513Z" fill="black"/>
    <path d="M16.5832 10.7513C16.5832 9.14047 17.889 7.83464 19.4998 7.83464C21.1107 7.83464 22.4165 9.14047 22.4165 10.7513C22.4165 12.3621 21.1107 13.668 19.4998 13.668C17.889 13.668 16.5832 12.3621 16.5832 10.7513Z" fill="black"/>
    </mask>
    <g mask="url(#mask0_1463_3)">
    <path d="M-3.8335 -9.66797H66.1665V60.332H-3.8335V-9.66797Z" fill="#9A966E"/>
    </g>
    </svg>
    