<svg width="40" height="50" viewBox="0 0 40 50" fill="none" xmlns="http://www.w3.org/2000/svg">
    <path d="M40 8.97083V40.9771C40 42.0979 39.6698 43.0931 39.0095 43.9625C38.3492 44.8333 37.4727 45.4236 36.38 45.7333L21.9254 49.8458C21.7351 49.8972 21.5323 49.9354 21.3168 49.9604C21.0986 49.9868 20.8936 50 20.702 50C20.1479 50 19.6443 49.9271 19.191 49.7812C18.7419 49.634 18.2831 49.4312 17.8144 49.1729L8.36053 43.8729C8.01357 43.6826 7.74006 43.4285 7.54 43.1104C7.33994 42.791 7.23991 42.4333 7.23991 42.0375C7.23991 41.4347 7.45256 40.9222 7.87787 40.5C8.30317 40.0764 8.8201 39.8646 9.42868 39.8646H21.6652V10.3417L12.4736 13.5979C11.728 13.8576 11.1292 14.3146 10.6773 14.9687C10.2268 15.6243 10.0016 16.3396 10.0016 17.1146V33.9437C10.0016 34.6326 9.82809 35.266 9.48114 35.8438C9.13138 36.4215 8.65362 36.8736 8.04785 37.2L3.6997 39.5542C3.29958 39.7597 2.90016 39.8625 2.50144 39.8625C1.80613 39.8625 1.21575 39.6215 0.730287 39.1396C0.243429 38.6576 0 38.0715 0 37.3812V13.6729C0 12.8118 0.230838 11.9854 0.692513 11.1937C1.15139 10.4007 1.76276 9.78889 2.52662 9.35833L18.0494 0.59375C18.3964 0.404861 18.7699 0.259028 19.17 0.15625C19.5688 0.0520833 19.9675 0 20.3662 0C20.6614 0 20.9272 0.0215278 21.1636 0.0645833C21.3959 0.107639 21.6505 0.172222 21.9275 0.258333L36.3821 4.21458C36.9194 4.36736 37.409 4.59583 37.8511 4.9C38.2946 5.20139 38.6772 5.5625 38.999 5.98333C39.3208 6.40694 39.5677 6.87222 39.7398 7.37917C39.9147 7.88889 40 8.41945 40 8.97083ZM36.6675 40.9771V8.97083C36.6675 8.59167 36.5556 8.25972 36.3318 7.975C36.1037 7.69167 35.8078 7.49722 35.4441 7.39167L28.3343 5.45417C27.7789 5.3 27.2235 5.14028 26.6681 4.975C26.1127 4.8125 25.5572 4.6625 25.0018 4.525V45.525L35.4441 42.5521C35.8078 42.4493 36.103 42.2549 36.3297 41.9688C36.5549 41.6854 36.6675 41.3542 36.6675 40.975V40.9771Z" fill="#9A966E"/>
    </svg>
    