<svg width="44" height="53" viewBox="0 0 44 53" fill="none" xmlns="http://www.w3.org/2000/svg">
    <path d="M2.44444 0H41.5556C42.2039 0 42.8256 0.253814 43.284 0.705606C43.7425 1.1574 44 1.77016 44 2.40909V12.0455C44 12.6844 43.7425 13.2971 43.284 13.7489C42.8256 14.2007 42.2039 14.4545 41.5556 14.4545H2.44444C1.79614 14.4545 1.17438 14.2007 0.715961 13.7489C0.257539 13.2971 0 12.6844 0 12.0455V2.40909C0 1.77016 0.257539 1.1574 0.715961 0.705606C1.17438 0.253814 1.79614 0 2.44444 0ZM2.44444 19.2727H41.5556C42.2039 19.2727 42.8256 19.5265 43.284 19.9783C43.7425 20.4301 44 21.0429 44 21.6818V31.3182C44 31.9571 43.7425 32.5699 43.284 33.0217C42.8256 33.4735 42.2039 33.7273 41.5556 33.7273H2.44444C1.79614 33.7273 1.17438 33.4735 0.715961 33.0217C0.257539 32.5699 0 31.9571 0 31.3182V21.6818C0 21.0429 0.257539 20.4301 0.715961 19.9783C1.17438 19.5265 1.79614 19.2727 2.44444 19.2727ZM2.44444 38.5455H41.5556C42.2039 38.5455 42.8256 38.7993 43.284 39.2511C43.7425 39.7029 44 40.3156 44 40.9545V50.5909C44 51.2298 43.7425 51.8426 43.284 52.2944C42.8256 52.7462 42.2039 53 41.5556 53H2.44444C1.79614 53 1.17438 52.7462 0.715961 52.2944C0.257539 51.8426 0 51.2298 0 50.5909V40.9545C0 40.3156 0.257539 39.7029 0.715961 39.2511C1.17438 38.7993 1.79614 38.5455 2.44444 38.5455ZM14.6667 9.63636H17.1111V4.81818H14.6667V9.63636ZM14.6667 28.9091H17.1111V24.0909H14.6667V28.9091ZM14.6667 48.1818H17.1111V43.3636H14.6667V48.1818ZM4.88889 4.81818V9.63636H9.77778V4.81818H4.88889ZM4.88889 24.0909V28.9091H9.77778V24.0909H4.88889ZM4.88889 43.3636V48.1818H9.77778V43.3636H4.88889Z" fill="#9A966E"/>
    </svg>
    