<svg width="45" height="50" viewBox="0 0 45 50" fill="none" xmlns="http://www.w3.org/2000/svg">
    <path d="M12.5 5C12.5 6.32608 11.9732 7.59785 11.0355 8.53553C10.0979 9.47322 8.82608 10 7.5 10C6.17392 10 4.90215 9.47322 3.96447 8.53553C3.02678 7.59785 2.5 6.32608 2.5 5C2.5 3.67392 3.02678 2.40215 3.96447 1.46447C4.90215 0.526784 6.17392 0 7.5 0C8.82608 0 10.0979 0.526784 11.0355 1.46447C11.9732 2.40215 12.5 3.67392 12.5 5ZM5 35V50H9.17719e-08V20C-0.000231204 18.5211 0.43675 17.0752 1.256 15.844C2.07526 14.6128 3.24022 13.6513 4.60442 13.0803C5.96862 12.5094 7.47117 12.3545 8.92317 12.6351C10.3752 12.9157 11.7118 13.6193 12.765 14.6575L18.7 20.265L24.4825 14.4825L28.0175 18.0175L18.8 27.235L15 23.65V50H10V35H5ZM17.5 7.5H40V30H17.5V35H28.4125L35.4725 50H40.9975L33.94 35H42.5C43.163 35 43.7989 34.7366 44.2678 34.2678C44.7366 33.7989 45 33.163 45 32.5V5C45 4.33696 44.7366 3.70107 44.2678 3.23223C43.7989 2.76339 43.163 2.5 42.5 2.5H17.5V7.5Z" fill="#9A966E"/>
    </svg>
    