<svg width="27" height="21" viewBox="0 0 27 21" fill="none" xmlns="http://www.w3.org/2000/svg">
    <path
        d="M15.0296 0.559592C15.3913 0.201285 15.8817 0 16.3931 0C16.9045 0 17.395 0.201285 17.7566 0.559592L26.4353 9.16028C26.7969 9.51869 27 10.0047 27 10.5115C27 11.0183 26.7969 11.5044 26.4353 11.8628L17.7566 20.4635C17.3929 20.8116 16.9057 21.0043 16.4 20.9999C15.8944 20.9956 15.4107 20.7946 15.0531 20.4402C14.6955 20.0858 14.4927 19.6065 14.4883 19.1053C14.4839 18.6042 14.6783 18.1214 15.0296 17.761L20.2503 12.4228H1.9286C1.4171 12.4228 0.926557 12.2214 0.564874 11.863C0.203191 11.5046 0 11.0184 0 10.5115C0 10.0046 0.203191 9.5185 0.564874 9.16007C0.926557 8.80164 1.4171 8.60028 1.9286 8.60028H20.2503L15.0296 3.26212C14.668 2.9037 14.4649 2.41765 14.4649 1.91085C14.4649 1.40406 14.668 0.918007 15.0296 0.559592Z"
        fill="#D1D1D1" />
</svg>
    