<svg width="28" height="31" viewBox="0 0 28 31" fill="none" xmlns="http://www.w3.org/2000/svg">
    <circle cx="14" cy="17" r="14" fill="#F0A159" />
    <circle cx="14" cy="14" r="14" fill="#F0D859" />
    <path
        d="M14.8226 6.00098C15.4063 5.99874 15.9901 6.00461 16.5737 6.01858L16.7289 6.02418C16.9081 6.03058 17.0849 6.03858 17.2985 6.04818C18.1496 6.08818 18.7304 6.22258 19.24 6.42017C19.768 6.62336 20.2128 6.89855 20.6576 7.34334C21.0642 7.74301 21.379 8.22647 21.5799 8.76009C21.7775 9.26967 21.9119 9.85125 21.9519 10.7024C21.9615 10.9152 21.9695 11.0928 21.9759 11.272L21.9807 11.4272C21.9949 12.0105 22.0011 12.594 21.9991 13.1775L21.9999 13.7743V14.8223C22.0019 15.4061 21.9958 15.9898 21.9815 16.5734L21.9767 16.7286C21.9703 16.9078 21.9623 17.0846 21.9527 17.2982C21.9127 18.1494 21.7767 18.7302 21.5799 19.2397C21.3797 19.7739 21.0648 20.2578 20.6576 20.6573C20.2575 21.0639 19.7738 21.3787 19.24 21.5797C18.7304 21.7772 18.1496 21.9116 17.2985 21.9516C17.0849 21.9612 16.9081 21.9692 16.7289 21.9756L16.5737 21.9804C15.9901 21.9947 15.4063 22.0008 14.8226 21.9988L14.2258 21.9996H13.1786C12.5948 22.0016 12.0111 21.9955 11.4275 21.9812L11.2723 21.9764C11.0824 21.9696 10.8925 21.9616 10.7027 21.9524C9.85153 21.9124 9.27075 21.7764 8.76037 21.5797C8.22653 21.3791 7.74299 21.0643 7.34362 20.6573C6.93647 20.2575 6.62142 19.7738 6.42045 19.2397C6.22285 18.7302 6.08846 18.1494 6.04846 17.2982C6.03955 17.1084 6.03155 16.9185 6.02446 16.7286L6.02046 16.5734C6.00571 15.9898 5.99905 15.4061 6.00046 14.8223V13.1775C5.99823 12.594 6.0041 12.0105 6.01806 11.4272L6.02366 11.272C6.03006 11.0928 6.03806 10.9152 6.04766 10.7024C6.08766 9.85045 6.22205 9.27047 6.41965 8.76009C6.62074 8.2262 6.9364 7.74288 7.34442 7.34414C7.74352 6.93675 8.22675 6.62142 8.76037 6.42017C9.27075 6.22258 9.85073 6.08818 10.7027 6.04818L11.2723 6.02418L11.4275 6.02018C12.0108 6.00544 12.5943 5.99878 13.1778 6.00018L14.8226 6.00098ZM14.0002 10.0008C13.4702 9.99335 12.944 10.0913 12.4522 10.2889C11.9604 10.4865 11.5128 10.7799 11.1354 11.1521C10.7579 11.5242 10.4582 11.9676 10.2537 12.4566C10.0491 12.9455 9.94376 13.4703 9.94376 14.0003C9.94376 14.5303 10.0491 15.0551 10.2537 15.5441C10.4582 16.033 10.7579 16.4764 11.1354 16.8486C11.5128 17.2207 11.9604 17.5141 12.4522 17.7117C12.944 17.9094 13.4702 18.0073 14.0002 17.9998C15.061 17.9998 16.0784 17.5784 16.8285 16.8282C17.5786 16.0781 18.0001 15.0607 18.0001 13.9999C18.0001 12.9391 17.5786 11.9217 16.8285 11.1716C16.0784 10.4215 15.061 10.0008 14.0002 10.0008ZM14.0002 11.6008C14.319 11.5949 14.6358 11.6526 14.932 11.7706C15.2282 11.8885 15.498 12.0643 15.7256 12.2876C15.9531 12.511 16.1339 12.7774 16.2573 13.0714C16.3807 13.3654 16.4443 13.6811 16.4443 13.9999C16.4444 14.3188 16.3809 14.6344 16.2576 14.9285C16.1343 15.2225 15.9536 15.489 15.7261 15.7124C15.4987 15.9359 15.2289 16.1117 14.9327 16.2298C14.6365 16.3478 14.3198 16.4056 14.001 16.3998C13.3645 16.3998 12.7541 16.147 12.304 15.6969C11.8539 15.2468 11.6011 14.6364 11.6011 13.9999C11.6011 13.3634 11.8539 12.753 12.304 12.3029C12.7541 11.8528 13.3645 11.6 14.001 11.6L14.0002 11.6008ZM18.2 8.80089C17.942 8.81122 17.6979 8.92101 17.519 9.10726C17.34 9.29351 17.2401 9.54177 17.2401 9.80005C17.2401 10.0583 17.34 10.3066 17.519 10.4929C17.6979 10.6791 17.942 10.7889 18.2 10.7992C18.4653 10.7992 18.7196 10.6939 18.9071 10.5063C19.0947 10.3188 19.2 10.0645 19.2 9.79925C19.2 9.53405 19.0947 9.2797 18.9071 9.09217C18.7196 8.90464 18.4653 8.79929 18.2 8.79929V8.80089Z"
        fill="#352F44" />
</svg>
    