<svg width="28" height="31" viewBox="0 0 28 31" fill="none" xmlns="http://www.w3.org/2000/svg">
    <circle cx="14" cy="17" r="14" fill="#F0A159" />
    <circle cx="14" cy="14" r="14" fill="#F0D859" />
    <path
        d="M20.2222 6C20.6937 6 21.1459 6.1873 21.4793 6.5207C21.8127 6.8541 22 7.30628 22 7.77778V20.2222C22 20.6937 21.8127 21.1459 21.4793 21.4793C21.1459 21.8127 20.6937 22 20.2222 22H7.77778C7.30628 22 6.8541 21.8127 6.5207 21.4793C6.1873 21.1459 6 20.6937 6 20.2222V7.77778C6 7.30628 6.1873 6.8541 6.5207 6.5207C6.8541 6.1873 7.30628 6 7.77778 6H20.2222ZM19.7778 19.7778V15.0667C19.7778 14.2981 19.4725 13.5611 18.929 13.0176C18.3856 12.4742 17.6485 12.1689 16.88 12.1689C16.1244 12.1689 15.2444 12.6311 14.8178 13.3244V12.3378H12.3378V19.7778H14.8178V15.3956C14.8178 14.7111 15.3689 14.1511 16.0533 14.1511C16.3834 14.1511 16.6999 14.2822 16.9333 14.5156C17.1667 14.749 17.2978 15.0655 17.2978 15.3956V19.7778H19.7778ZM9.44889 10.9422C9.84495 10.9422 10.2248 10.7849 10.5048 10.5048C10.7849 10.2248 10.9422 9.84495 10.9422 9.44889C10.9422 8.62222 10.2756 7.94667 9.44889 7.94667C9.05047 7.94667 8.66838 8.10494 8.38666 8.38666C8.10494 8.66838 7.94667 9.05047 7.94667 9.44889C7.94667 10.2756 8.62222 10.9422 9.44889 10.9422ZM10.6844 19.7778V12.3378H8.22222V19.7778H10.6844Z"
        fill="#352F44" />
</svg>
    